HIERARCHY
ROOT Hips
{
  OFFSET 56.0019 96.8026 2.74298
  CHANNELS 6 Xposition Yposition Zposition Zrotation Xrotation Yrotation
  JOINT spine
  {
    OFFSET 0 7.96568 0.458067
    CHANNELS 3 Zrotation Xrotation Yrotation
    JOINT spine1
    {
      OFFSET 0 10.2431 0
      CHANNELS 3 Zrotation Xrotation Yrotation
      JOINT spine2
      {
        OFFSET 0 9.81475 0
        CHANNELS 3 Zrotation Xrotation Yrotation
        JOINT Neck
        {
          OFFSET 0 25.1986 1.20138
          CHANNELS 3 Zrotation Xrotation Yrotation
          JOINT Head
          {
            OFFSET 0 7.61315 0
            CHANNELS 3 Zrotation Xrotation Yrotation
            End Site
            {
              OFFSET 0 18.4281 -6.07733
            }
          }
        }
        JOINT RightShoulder
        {
          OFFSET -4.1327 10.5992 -0.575451
          CHANNELS 3 Zrotation Xrotation Yrotation
          JOINT RightArm
          {
            OFFSET 0 13.9018 0
            CHANNELS 3 Zrotation Xrotation Yrotation
            JOINT RightArmRoll
            {
              OFFSET 0 7.01789 0
              CHANNELS 3 Zrotation Xrotation Yrotation
              JOINT RightForeArm
              {
                OFFSET 0 20.4406 0
                CHANNELS 3 Zrotation Xrotation Yrotation
                JOINT RightForeArmRoll
                {
                  OFFSET 0 7.87515 0
                  CHANNELS 3 Zrotation Xrotation Yrotation
                  JOINT RightHand
                  {
                    OFFSET 0 15.8037 0
                    CHANNELS 3 Zrotation Xrotation Yrotation
                    End Site
                    {
                      OFFSET 0 0 0
                    }
                  }
                }
              }
            }
          }
        }
        JOINT LeftShoulder
        {
          OFFSET 4.1327 10.5992 -0.575451
          CHANNELS 3 Zrotation Xrotation Yrotation
          JOINT LeftArm
          {
            OFFSET 0 13.9018 0
            CHANNELS 3 Zrotation Xrotation Yrotation
            JOINT LeftArmRoll
            {
              OFFSET 0 7.01788 0
              CHANNELS 3 Zrotation Xrotation Yrotation
              JOINT LeftForeArm
              {
                OFFSET 0 20.4406 0
                CHANNELS 3 Zrotation Xrotation Yrotation
                JOINT LeftForeArmRoll
                {
                  OFFSET 0 7.87515 0
                  CHANNELS 3 Zrotation Xrotation Yrotation
                  JOINT LeftHand
                  {
                    OFFSET 0 15.8037 0
                    CHANNELS 3 Zrotation Xrotation Yrotation
                    End Site
                    {
                      OFFSET 0 0 0
                    }
                  }
                }
              }
            }
          }
        }
      }
    }
  }
  JOINT RightUpLeg
  {
    OFFSET -7.06048 -1.2947 -1.0861
    CHANNELS 3 Zrotation Xrotation Yrotation
    JOINT RightUpLegRoll
    {
      OFFSET 0 18.5308 0
      CHANNELS 3 Zrotation Xrotation Yrotation
      JOINT RightLeg
      {
        OFFSET 0 -22.9476 0
        CHANNELS 3 Zrotation Xrotation Yrotation
        JOINT RightLegRoll
        {
          OFFSET 0 23.0226 0
          CHANNELS 3 Zrotation Xrotation Yrotation
          JOINT RightFoot
          {
            OFFSET 0 19.1625 0
            CHANNELS 3 Zrotation Xrotation Yrotation
            JOINT RightToeBase
            {
              OFFSET 0 16.0188 0
              CHANNELS 3 Zrotation Xrotation Yrotation
              End Site
              {
                OFFSET 0.00678979 7.75782 -0.894207
              }
            }
          }
        }
      }
    }
  }
  JOINT LeftUpLeg
  {
    OFFSET 7.06048 -1.2947 -1.0861
    CHANNELS 3 Zrotation Xrotation Yrotation
    JOINT LeftUpLegRoll
    {
      OFFSET 0 18.5309 0
      CHANNELS 3 Zrotation Xrotation Yrotation
      JOINT LeftLeg
      {
        OFFSET 0 22.9475 0
        CHANNELS 3 Zrotation Xrotation Yrotation
        JOINT LeftLegRoll
        {
          OFFSET 0 23.2355 0
          CHANNELS 3 Zrotation Xrotation Yrotation
          JOINT LeftFoot
          {
            OFFSET 0 18.9496 0
            CHANNELS 3 Zrotation Xrotation Yrotation
            JOINT LeftToeBase
            {
              OFFSET 0 16.0188 0
              CHANNELS 3 Zrotation Xrotation Yrotation
              End Site
              {
                OFFSET -0.0304289 7.75782 -0.894207
              }
            }
          }
        }
      }
    }
  }
}
MOTION
Frames: 8
Frame Time: 0.00208333
59.0479 96.9482 10.0587 0.406916 -5.42164 3.95986 0.27634 -0.389671 -0.292611 0.570819 3.22189 -0.616848 0.579022 4.86687 -0.626666 -0.447268 17.3629 -0.458475 2.78271 14.5015 -0.678069 77.9943 -4.86995 -4.17868 89.5772 18.3313 17.0737 8.96436e-007 1.01431e-006 1.99398e-006 4.77513 9.01505 -1.31224 -5.43752e-006 -2.88357e-006 -3.01001 8.0296 -4.95141 0.697654 -59.4813 -2.46702 1.59428 -110.594 12.2348 -5.87131 8.54774e-015 1.59028e-015 -0 -5.7149 2.31769 0.91194 1.16966e-005 -3.45868e-007 3.01344 -8.02947 -4.95143 -0.697659 178.102 -3.39219 3.08813 180 7.01516e-015 178.797 177.877 6.85517 179.668 -2.21324e-006 -6.73998e-007 0.0829158 -18.5892 67.7858 19.3696 8.12786 25.2331 -3.48406 -176.019 -3.00529 -1.19642 4.54188e-006 -4.6773e-006 -1.18352 -2.15644 -7.41153 0.0535033 5.39004e-007 -2.5754e-006 -0.109616 19.0457 68.3927 -19.864 -8.1325 25.2329 3.48603 
59.0564 96.947 10.0724 0.400836 -5.40632 3.95912 0.278471 -0.388812 -0.293694 0.575061 3.22359 -0.619888 0.583303 4.86856 -0.629805 -0.455941 17.3374 -0.442792 2.7583 14.4951 -0.663832 77.9692 -4.8644 -4.17501 89.6376 18.3487 17.0613 8.96437e-007 1.01431e-006 1.99398e-006 4.75828 9.04693 -1.31167 -5.43752e-006 -2.88357e-006 -3.01001 8.0296 -4.95141 0.697654 -59.4885 -2.49796 1.61376 -110.598 12.2773 -5.83415 1.03368e-014 3.18055e-015 3.18055e-015 -5.72675 2.38744 0.916556 1.16966e-005 -3.45868e-007 3.01344 -8.02947 -4.95143 -0.697659 178.112 -3.31454 3.0738 180 7.01517e-015 178.799 177.886 6.96349 179.666 -2.21324e-006 -6.73998e-007 0.0856293 -18.614 67.8201 19.3968 8.12786 25.2331 -3.48406 -176.019 -2.93591 -1.18264 4.54188e-006 -4.6773e-006 -1.18351 -2.14077 -7.50186 0.0549949 5.39004e-007 -2.5754e-006 -0.11312 19.0921 68.4487 -19.9124 -8.1325 25.2329 3.48603 
59.0518 96.9507 10.0612 0.394531 -5.39065 3.95821 0.280617 -0.388096 -0.294829 0.579366 3.225 -0.62307 0.587648 4.86997 -0.633089 -0.464878 17.3124 -0.427029 2.73343 14.4886 -0.649582 77.9436 -4.85868 -4.17124 89.6989 18.3659 17.0497 8.96436e-007 1.01431e-006 1.99398e-006 4.7405 9.07874 -1.31096 -5.43752e-006 -2.88357e-006 -3.01001 8.0296 -4.95141 0.697654 -59.4961 -2.53047 1.63424 -110.601 12.3196 -5.79763 -2.78299e-015 1.59028e-015 -4.77083e-015 -5.73831 2.45759 0.921213 1.16966e-005 -3.45868e-007 3.01344 -8.02947 -4.95143 -0.697659 178.123 -3.23431 3.05961 180 7.01517e-015 178.8 177.896 7.07631 179.664 -2.21324e-006 -6.73998e-007 0.0885034 -18.6407 67.8568 19.4262 8.12786 25.2331 -3.48406 -176.02 -2.86449 -1.16776 4.54188e-006 -4.6773e-006 -1.1835 -2.12403 -7.59542 0.0565606 5.39004e-007 -2.5754e-006 -0.116817 19.1419 68.5085 -19.9644 -8.1325 25.2329 3.48603 
59.0513 96.9488 10.06 0.388069 -5.37474 3.95718 0.282774 -0.38748 -0.296001 0.583716 3.22621 -0.62635 0.592039 4.87118 -0.636473 -0.473995 17.2879 -0.41121 2.70825 14.4819 -0.635325 77.9175 -4.85284 -4.1674 89.7607 18.3828 17.0387 8.96436e-007 1.01431e-006 1.99398e-006 4.72206 9.1105 -1.31016 -5.43752e-006 -2.88357e-006 -3.01001 8.0296 -4.95141 0.697654 -59.504 -2.56407 1.65542 -110.604 12.3618 -5.76154 -7.15625e-015 -1.59028e-015 -1.59028e-015 -5.74966 2.528 0.925898 1.16966e-005 -3.45868e-007 3.01344 -8.02947 -4.95143 -0.697659 178.133 -3.15227 3.04551 180 7.01517e-015 178.802 177.905 7.1923 179.662 -2.21324e-006 -6.73998e-007 0.09149 -18.6688 67.8953 19.4571 8.12786 25.2331 -3.48406 -176.02 -2.79164 -1.15212 4.54188e-006 -4.6773e-006 -1.1835 -2.10654 -7.69125 0.0581786 5.39004e-007 -2.5754e-006 -0.120649 19.1941 68.5708 -20.019 -8.1325 25.2329 3.48603 
59.0515 96.9514 10.0602 0.381518 -5.35868 3.95608 0.284938 -0.386922 -0.297193 0.58809 3.2273 -0.629688 0.596455 4.87228 -0.639914 -0.48321 17.2637 -0.395362 2.68288 14.4752 -0.621064 77.8912 -4.84693 -4.16353 89.8228 18.3995 17.028 8.96436e-007 1.01431e-006 1.99398e-006 4.70325 9.14224 -1.3093 -5.43752e-006 -2.88357e-006 -3.01001 8.0296 -4.95141 0.697654 -59.5121 -2.5983 1.67699 -110.607 12.404 -5.72571 -9.14409e-015 -1.59028e-015 -1.59028e-015 -5.76091 2.59857 0.9306 1.16966e-005 -3.45868e-007 3.01344 -8.02947 -4.95143 -0.697659 178.143 -3.06919 3.03146 180 7.01518e-015 178.803 177.914 7.3101 179.66 -2.21324e-006 -6.73998e-007 0.0945408 -18.6978 67.9348 19.489 8.12786 25.2331 -3.48406 -176.021 -2.71798 -1.13604 4.54188e-006 -4.6773e-006 -1.1835 -2.08862 -7.78836 0.0598268 5.39004e-007 -2.5754e-006 -0.124558 19.248 68.6346 -20.0753 -8.1325 25.2329 3.48603 
59.0311 96.9472 10.0277 0.374944 -5.3426 3.95496 0.287102 -0.386377 -0.298391 0.592471 3.22837 -0.633039 0.600877 4.87334 -0.64337 -0.492439 17.2395 -0.379509 2.65748 14.4685 -0.606802 77.8649 -4.84101 -4.15964 89.8851 18.4163 17.0174 8.96436e-007 1.01431e-006 1.99398e-006 4.68434 9.17396 -1.30843 -5.43752e-006 -2.88357e-006 -3.01001 8.0296 -4.95141 0.697654 -59.5201 -2.63269 1.69866 -110.61 12.4462 -5.68993 1.15295e-014 4.77083e-015 1.59028e-015 -5.77214 2.66918 0.935307 1.16966e-005 -3.45868e-007 3.01344 -8.02947 -4.95143 -0.697659 178.154 -2.98585 3.01744 180 7.01518e-015 178.805 177.924 7.42834 179.658 -2.21324e-006 -6.73998e-007 0.0976077 -18.7272 67.9746 19.5211 8.12786 25.2331 -3.48406 -176.022 -2.64412 -1.11986 4.54188e-006 -4.6773e-006 -1.1835 -2.07059 -7.8858 0.0614833 5.39004e-007 -2.5754e-006 -0.128487 19.3025 68.6987 -20.1322 -8.1325 25.2329 3.48603 
59.0484 96.9459 10.0272 0.368417 -5.32658 3.95388 0.289264 -0.385804 -0.299578 0.596839 3.22949 -0.636362 0.605287 4.87447 -0.646797 -0.501598 17.2151 -0.363678 2.63217 14.4618 -0.592544 77.8387 -4.83512 -4.15577 89.9471 18.4331 17.0066 8.96436e-007 1.01431e-006 1.99398e-006 4.66562 9.20571 -1.30759 -5.43752e-006 -2.88357e-006 -3.01001 8.0296 -4.95141 0.697654 -59.5281 -2.66676 1.72014 -110.612 12.4884 -5.65401 -1.98785e-015 -1.59028e-015 -0 -5.78344 2.73971 0.94001 1.16966e-005 -3.45868e-007 3.01344 -8.02947 -4.95143 -0.697659 178.164 -2.90302 3.0034 180 7.01519e-015 178.806 177.933 7.54569 179.656 -2.21324e-006 -6.73998e-007 0.100643 -18.7562 68.0138 19.553 8.12786 25.2331 -3.48406 -176.023 -2.57066 -1.1039 4.54188e-006 -4.6773e-006 -1.18349 -2.05277 -7.9826 0.063126 5.39004e-007 -2.5754e-006 -0.132376 19.3567 68.7621 -20.1888 -8.1325 25.2329 3.48603 
59.0367 96.946 10.0288 0.362002 -5.31073 3.95288 0.291418 -0.38516 -0.30074 0.601177 3.23076 -0.639614 0.609665 4.87573 -0.650152 -0.510603 17.1905 -0.347893 2.60709 14.4552 -0.578293 77.8127 -4.82931 -4.15195 90.0088 18.4501 16.9954 8.96436e-007 1.01431e-006 1.99398e-006 4.64737 9.23748 -1.30682 -5.43752e-006 -2.88357e-006 -3.01001 8.0296 -4.95141 0.697654 -59.5358 -2.70004 1.74112 -110.616 12.5307 -5.61776 -3.02153e-014 -7.95139e-015 -6.36111e-015 -5.79491 2.81005 0.944695 1.16966e-005 -3.45868e-007 3.01344 -8.02947 -4.95143 -0.697659 178.175 -2.82149 2.9893 180 7.01519e-015 178.808 177.942 7.66077 179.654 -2.21324e-006 -6.73998e-007 0.103597 -18.7845 68.0518 19.584 8.12786 25.2331 -3.48406 -176.024 -2.49822 -1.08849 4.54188e-006 -4.6773e-006 -1.18349 -2.03547 -8.07777 0.0647329 5.39004e-007 -2.5754e-006 -0.13617 19.4097 68.8236 -20.244 -8.1325 25.2329 3.48603 
